<svg width="906.2040938499077" height="2190.0508452238573" viewBox="0 0 906.2040938499077 2190.0508452238573" xmlns="http://www.w3.org/2000/svg">
<style>/* font and background color specifications */
svg {
    font-family: SFMono-Regular,Consolas,Liberation Mono,Menlo,monospace;
    font-size: 14px;
    font-kerning: normal;
    text-rendering: optimizeLegibility;
    fill: #24292e;
}

/* default key styling */
rect {
    fill: #f6f8fa;
    stroke: #c9cccf;
    stroke-width: 1;
}

/* color accent for combo boxes */
rect.combo {
    fill: #cdf;
}

/* color accent for held keys */
rect.held, rect.combo.held {
    fill: #fdd;
}

/* color accent for ghost (optional) keys */
rect.ghost, rect.combo.ghost {
    fill: #ddd;
}

text {
    text-anchor: middle;
    dominant-baseline: middle;
}

/* styling for layer labels */
text.label {
    font-weight: bold;
    text-anchor: start;
    stroke: white;
    stroke-width: 2;
    paint-order: stroke;
}

/* styling for combo tap, and key hold/shifted label text */
text.combo, text.hold, text.shifted {
    font-size: 11px;
}

text.hold {
    text-anchor: middle;
    dominant-baseline: auto;
}

text.shifted {
    text-anchor: middle;
    dominant-baseline: hanging;
}

/* styling for hold/shifted label text in combo box */
text.combo.hold, text.combo.shifted {
    font-size: 8px;
}

/* styling for combo dendrons */
path {
    stroke-width: 1;
    stroke: gray;
    fill: none;
}
</style>
<g class="layer-base_layer">
<text x="30.0" y="28.0" class="label">base_layer:</text>
<g transform="rotate(-10.0, 103.10757461708434, 337.05913785102535)">
<rect rx="6.0" ry="6.0" x="75.45557461708434" y="311.05913785102535" width="55.303999999999995" height="52.0" class=""/>
<text x="103.10757461708434" y="337.05913785102535" class="tap">Q</text>
</g>
<g transform="rotate(-4.0, 169.6360682065927, 285.88195318126486)">
<rect rx="6.0" ry="6.0" x="141.98406820659272" y="259.88195318126486" width="55.303999999999995" height="52.0" class=""/>
<text x="169.6360682065927" y="285.88195318126486" class="tap">W</text>
</g>
<rect rx="6.0" ry="6.0" x="209.8" y="226.0" width="55.303999999999995" height="52.0" class=""/>
<text x="237.452" y="252.0" class="tap">F</text>
<rect rx="6.0" ry="6.0" x="269.104" y="253.776" width="55.303999999999995" height="52.0" class=""/>
<text x="296.756" y="279.776" class="tap">P</text>
<rect rx="6.0" ry="6.0" x="328.352" y="262.736" width="55.303999999999995" height="52.0" class=""/>
<text x="356.00399999999996" y="288.736" class="tap">B</text>
<rect rx="6.0" ry="6.0" x="518.192" y="262.736" width="55.303999999999995" height="52.0" class=""/>
<text x="545.844" y="288.736" class="tap">J</text>
<rect rx="6.0" ry="6.0" x="577.496" y="253.776" width="55.303999999999995" height="52.0" class=""/>
<text x="605.148" y="279.776" class="tap">L</text>
<rect rx="6.0" ry="6.0" x="636.8000000000001" y="226.0" width="55.303999999999995" height="52.0" class=""/>
<text x="664.4520000000001" y="252.0" class="tap">U</text>
<g transform="rotate(4.0, 732.0440682065927, 285.93404681873517)">
<rect rx="6.0" ry="6.0" x="704.3920682065926" y="259.93404681873517" width="55.303999999999995" height="52.0" class=""/>
<text x="732.0440682065927" y="285.93404681873517" class="tap">Y</text>
</g>
<g transform="rotate(10.0, 798.7964253829157, 337.11513785102534)">
<rect rx="6.0" ry="6.0" x="771.1444253829156" y="311.11513785102534" width="55.303999999999995" height="52.0" class=""/>
<text x="798.7964253829157" y="337.11513785102534" class="tap">;</text>
</g>
<g transform="rotate(-10.0, 112.85157461708434, 392.2191378510253)">
<rect rx="6.0" ry="6.0" x="85.19957461708434" y="366.2191378510253" width="55.303999999999995" height="52.0" class=""/>
<text x="112.85157461708434" y="392.2191378510253" class="tap">A</text>
<text x="112.85157461708434" y="416.2191378510253" class="hold">LCTRL</text>
</g>
<g transform="rotate(-4.0, 173.49993179340728, 341.7100468187352)">
<rect rx="6.0" ry="6.0" x="145.8479317934073" y="315.7100468187352" width="55.303999999999995" height="52.0" class=""/>
<text x="173.49993179340728" y="341.7100468187352" class="tap">R</text>
<text x="173.49993179340728" y="365.7100468187352" class="hold">LALT</text>
</g>
<rect rx="6.0" ry="6.0" x="209.8" y="282.0" width="55.303999999999995" height="52.0" class=""/>
<text x="237.452" y="308.0" class="tap">S</text>
<text x="237.452" y="332.0" class="hold">LGUI</text>
<rect rx="6.0" ry="6.0" x="269.104" y="309.776" width="55.303999999999995" height="52.0" class=""/>
<text x="296.756" y="335.776" class="tap">T</text>
<text x="296.756" y="359.776" class="hold">LSHFT</text>
<rect rx="6.0" ry="6.0" x="328.352" y="318.736" width="55.303999999999995" height="52.0" class=""/>
<text x="356.00399999999996" y="344.736" class="tap">G</text>
<rect rx="6.0" ry="6.0" x="518.192" y="319.016" width="55.303999999999995" height="52.0" class=""/>
<text x="545.844" y="345.016" class="tap">M</text>
<rect rx="6.0" ry="6.0" x="577.496" y="309.776" width="55.303999999999995" height="52.0" class=""/>
<text x="605.148" y="335.776" class="tap">N</text>
<text x="605.148" y="359.776" class="hold">RSHFT</text>
<rect rx="6.0" ry="6.0" x="636.8000000000001" y="282.0" width="55.303999999999995" height="52.0" class=""/>
<text x="664.4520000000001" y="308.0" class="tap">E</text>
<text x="664.4520000000001" y="332.0" class="hold">RGUI</text>
<g transform="rotate(4.0, 728.1239317934073, 341.76995318126484)">
<rect rx="6.0" ry="6.0" x="700.4719317934073" y="315.76995318126484" width="55.303999999999995" height="52.0" class=""/>
<text x="728.1239317934073" y="341.76995318126484" class="tap">I</text>
<text x="728.1239317934073" y="365.76995318126484" class="hold">LALT</text>
</g>
<g transform="rotate(10.0, 789.1084253829157, 392.2751378510253)">
<rect rx="6.0" ry="6.0" x="761.4564253829157" y="366.2751378510253" width="55.303999999999995" height="52.0" class=""/>
<text x="789.1084253829157" y="392.2751378510253" class="tap">O</text>
<text x="789.1084253829157" y="416.2751378510253" class="hold">RCTRL</text>
</g>
<g transform="rotate(-10.0, 59.651574617084336, 432.9311378510253)">
<rect rx="6.0" ry="6.0" x="31.99957461708434" y="406.9311378510253" width="55.303999999999995" height="52.0" class=""/>
<text x="59.651574617084336" y="432.9311378510253" class="tap">TAB</text>
</g>
<g transform="rotate(-10.0, 122.59642538291565, 447.3888621489747)">
<rect rx="6.0" ry="6.0" x="94.94442538291565" y="421.3888621489747" width="55.303999999999995" height="52.0" class=""/>
<text x="122.59642538291565" y="447.3888621489747" class="tap">Z</text>
</g>
<g transform="rotate(-4.0, 177.42006820659273, 397.60195318126483)">
<rect rx="6.0" ry="6.0" x="149.76806820659274" y="371.60195318126483" width="55.303999999999995" height="52.0" class=""/>
<text x="177.42006820659273" y="397.60195318126483" class="tap">X</text>
</g>
<rect rx="6.0" ry="6.0" x="209.8" y="338.0" width="55.303999999999995" height="52.0" class=""/>
<text x="237.452" y="364.0" class="tap">C</text>
<rect rx="6.0" ry="6.0" x="269.104" y="365.776" width="55.303999999999995" height="52.0" class=""/>
<text x="296.756" y="391.776" class="tap">D</text>
<rect rx="6.0" ry="6.0" x="328.352" y="374.736" width="55.303999999999995" height="52.0" class=""/>
<text x="356.00399999999996" y="400.736" class="tap">V</text>
<rect rx="6.0" ry="6.0" x="518.192" y="375.01599999999996" width="55.303999999999995" height="52.0" class=""/>
<text x="545.844" y="401.01599999999996" class="tap">K</text>
<rect rx="6.0" ry="6.0" x="577.496" y="365.776" width="55.303999999999995" height="52.0" class=""/>
<text x="605.148" y="391.776" class="tap">H</text>
<rect rx="6.0" ry="6.0" x="636.8000000000001" y="338.0" width="55.303999999999995" height="52.0" class=""/>
<text x="664.4520000000001" y="364.0" class="tap">,</text>
<g transform="rotate(4.0, 724.2600682065927, 397.6540468187352)">
<rect rx="6.0" ry="6.0" x="696.6080682065926" y="371.6540468187352" width="55.303999999999995" height="52.0" class=""/>
<text x="724.2600682065927" y="397.6540468187352" class="tap">.</text>
</g>
<g transform="rotate(10.0, 779.3644253829157, 447.43513785102533)">
<rect rx="6.0" ry="6.0" x="751.7124253829156" y="421.43513785102533" width="55.303999999999995" height="52.0" class=""/>
<text x="779.3644253829157" y="447.43513785102533" class="tap">/</text>
</g>
<g transform="rotate(10.0, 842.1404253829157, 432.9311378510253)">
<rect rx="6.0" ry="6.0" x="814.4884253829157" y="406.9311378510253" width="55.303999999999995" height="52.0" class=""/>
<text x="842.1404253829157" y="432.9311378510253" class="tap">RET</text>
</g>
<rect rx="6.0" ry="6.0" x="252.52800000000002" y="433.98400000000004" width="55.303999999999995" height="52.0" class=""/>
<text x="280.18" y="459.98400000000004" class="tap">LGUI</text>
<g transform="rotate(15.0, 345.8110459231361, 469.1752469332629)">
<rect rx="6.0" ry="6.0" x="318.1590459231361" y="443.1752469332629" width="55.303999999999995" height="52.0" class=""/>
<text x="345.8110459231361" y="469.1752469332629" class="tap">LSHFT</text>
<text x="345.8110459231361" y="493.1752469332629" class="hold">LSHFT</text>
</g>
<g transform="rotate(30.0, 406.56824871130596, 494.438)">
<rect rx="6.0" ry="6.0" x="378.91624871130597" y="468.438" width="55.303999999999995" height="52.0" class=""/>
<text x="406.56824871130596" y="494.438" class="tap">lower_layer</text>
</g>
<g transform="rotate(-30.0, 495.38424871130593, 494.41)">
<rect rx="6.0" ry="6.0" x="467.73224871130594" y="468.41" width="55.303999999999995" height="52.0" class=""/>
<text x="495.38424871130593" y="494.41" class="tap">raise_layer</text>
</g>
<g transform="rotate(-15.0, 556.1489540768639, 469.1752469332629)">
<rect rx="6.0" ry="6.0" x="528.4969540768639" y="443.1752469332629" width="55.303999999999995" height="52.0" class=""/>
<text x="556.1489540768639" y="469.1752469332629" class="tap">SPACE</text>
<text x="556.1489540768639" y="493.1752469332629" class="hold">RSHFT</text>
</g>
<rect rx="6.0" ry="6.0" x="594.072" y="433.98400000000004" width="55.303999999999995" height="52.0" class=""/>
<text x="621.724" y="459.98400000000004" class="tap">LALT</text>
<rect rx="6.0" ry="6.0" x="122.37182141183854" y="298.4705455161451" width="28.0" height="26.0" class="combo"/>
<text x="136.37182141183854" y="311.4705455161451" class="combo">ESC</text>
<path d="M634.8000000000001,111.0 h-23.652000000000044 a6.0,6.0 0 0 0 -6.0,6.0 v200.10933333333335"/>
<path d="M634.8000000000001,111.0 h23.652000000000044 a6.0,6.0 0 0 1 6.0,6.0 v172.33333333333334"/>
<rect rx="6.0" ry="6.0" x="620.8000000000001" y="98.0" width="28.0" height="26.0" class="combo"/>
<text x="634.8000000000001" y="111.0" class="combo">$$bspc$$</text>
<path d="M696.2879658967038,139.0 h-25.83596589670367 a6.0,6.0 0 0 0 -6.0,6.0 v144.33333333333334"/>
<path d="M696.2879658967038,139.0 h25.835965896703556 a6.0,6.0 0 0 1 6.0,6.0 v178.10328651459818"/>
<rect rx="6.0" ry="6.0" x="682.2879658967038" y="126.0" width="28.0" height="26.0" class="combo"/>
<text x="696.2879658967038" y="139.0" class="combo">DEL</text>
<path d="M666.6359658967037,166.776 h-55.48796589670371 a6.0,6.0 0 0 0 -6.0,6.0 v144.33333333333334"/>
<path d="M666.6359658967037,166.776 h55.4879658967036 a6.0,6.0 0 0 1 6.0,6.0 v150.32728651459817"/>
<rect rx="6.0" ry="6.0" x="652.6359658967037" y="153.776" width="28.0" height="26.0" class="combo"/>
<text x="666.6359658967037" y="166.776" class="combo">LA(BSPC)</text>
</g>
<g class="layer-lower_layer">
<text x="30.0" y="561.5127113059643" class="label">lower_layer:</text>
<g transform="rotate(-10.0, 103.10757461708434, 870.5718491569896)">
<rect rx="6.0" ry="6.0" x="75.45557461708434" y="844.5718491569896" width="55.303999999999995" height="52.0" class=""/>
</g>
<g transform="rotate(-4.0, 169.6360682065927, 819.3946644872292)">
<rect rx="6.0" ry="6.0" x="141.98406820659272" y="793.3946644872292" width="55.303999999999995" height="52.0" class=""/>
<text x="169.6360682065927" y="819.3946644872292" class="tap">HOME</text>
</g>
<rect rx="6.0" ry="6.0" x="209.8" y="759.5127113059643" width="55.303999999999995" height="52.0" class=""/>
<text x="237.452" y="785.5127113059643" class="tap">UP</text>
<rect rx="6.0" ry="6.0" x="269.104" y="787.2887113059643" width="55.303999999999995" height="52.0" class=""/>
<text x="296.756" y="813.2887113059643" class="tap">END</text>
<rect rx="6.0" ry="6.0" x="328.352" y="796.2487113059643" width="55.303999999999995" height="52.0" class=""/>
<rect rx="6.0" ry="6.0" x="518.192" y="796.2487113059643" width="55.303999999999995" height="52.0" class=""/>
<text x="545.844" y="822.2487113059643" class="tap">%</text>
<rect rx="6.0" ry="6.0" x="577.496" y="787.2887113059643" width="55.303999999999995" height="52.0" class=""/>
<text x="605.148" y="813.2887113059643" class="tap">
<tspan x="605.148" dy="-0.6em">KP</tspan><tspan x="605.148" dy="1.2em">7</tspan></text>
<rect rx="6.0" ry="6.0" x="636.8000000000001" y="759.5127113059643" width="55.303999999999995" height="52.0" class=""/>
<text x="664.4520000000001" y="785.5127113059643" class="tap">
<tspan x="664.4520000000001" dy="-0.6em">KP</tspan><tspan x="664.4520000000001" dy="1.2em">8</tspan></text>
<g transform="rotate(4.0, 732.0440682065927, 819.4467581246995)">
<rect rx="6.0" ry="6.0" x="704.3920682065926" y="793.4467581246995" width="55.303999999999995" height="52.0" class=""/>
<text x="732.0440682065927" y="819.4467581246995" class="tap">
<tspan x="732.0440682065927" dy="-0.6em">KP</tspan><tspan x="732.0440682065927" dy="1.2em">9</tspan></text>
</g>
<g transform="rotate(10.0, 798.7964253829157, 870.6278491569897)">
<rect rx="6.0" ry="6.0" x="771.1444253829156" y="844.6278491569897" width="55.303999999999995" height="52.0" class=""/>
<text x="798.7964253829157" y="870.6278491569897" class="tap">=</text>
</g>
<g transform="rotate(-10.0, 112.85157461708434, 925.7318491569897)">
<rect rx="6.0" ry="6.0" x="85.19957461708434" y="899.7318491569897" width="55.303999999999995" height="52.0" class=""/>
<text x="112.85157461708434" y="925.7318491569897" class="tap">LC(LEFT)</text>
</g>
<g transform="rotate(-4.0, 173.49993179340728, 875.2227581246996)">
<rect rx="6.0" ry="6.0" x="145.8479317934073" y="849.2227581246996" width="55.303999999999995" height="52.0" class=""/>
<text x="173.49993179340728" y="875.2227581246996" class="tap">LEFT</text>
</g>
<rect rx="6.0" ry="6.0" x="209.8" y="815.5127113059643" width="55.303999999999995" height="52.0" class=""/>
<text x="237.452" y="841.5127113059643" class="tap">DOWN</text>
<rect rx="6.0" ry="6.0" x="269.104" y="843.2887113059643" width="55.303999999999995" height="52.0" class=""/>
<text x="296.756" y="869.2887113059643" class="tap">RIGHT</text>
<rect rx="6.0" ry="6.0" x="328.352" y="852.2487113059643" width="55.303999999999995" height="52.0" class=""/>
<text x="356.00399999999996" y="878.2487113059643" class="tap">LC(RIGHT)</text>
<rect rx="6.0" ry="6.0" x="518.192" y="852.5287113059643" width="55.303999999999995" height="52.0" class=""/>
<text x="545.844" y="878.5287113059643" class="tap">*</text>
<rect rx="6.0" ry="6.0" x="577.496" y="843.2887113059643" width="55.303999999999995" height="52.0" class=""/>
<text x="605.148" y="869.2887113059643" class="tap">
<tspan x="605.148" dy="-0.6em">KP</tspan><tspan x="605.148" dy="1.2em">4</tspan></text>
<rect rx="6.0" ry="6.0" x="636.8000000000001" y="815.5127113059643" width="55.303999999999995" height="52.0" class=""/>
<text x="664.4520000000001" y="841.5127113059643" class="tap">
<tspan x="664.4520000000001" dy="-0.6em">KP</tspan><tspan x="664.4520000000001" dy="1.2em">5</tspan></text>
<g transform="rotate(4.0, 728.1239317934073, 875.2826644872291)">
<rect rx="6.0" ry="6.0" x="700.4719317934073" y="849.2826644872291" width="55.303999999999995" height="52.0" class=""/>
<text x="728.1239317934073" y="875.2826644872291" class="tap">
<tspan x="728.1239317934073" dy="-0.6em">KP</tspan><tspan x="728.1239317934073" dy="1.2em">6</tspan></text>
</g>
<g transform="rotate(10.0, 789.1084253829157, 925.7878491569896)">
<rect rx="6.0" ry="6.0" x="761.4564253829157" y="899.7878491569896" width="55.303999999999995" height="52.0" class=""/>
<text x="789.1084253829157" y="925.7878491569896" class="tap">+</text>
</g>
<g transform="rotate(-10.0, 59.651574617084336, 966.4438491569897)">
<rect rx="6.0" ry="6.0" x="31.99957461708434" y="940.4438491569897" width="55.303999999999995" height="52.0" class=""/>
</g>
<g transform="rotate(-10.0, 122.59642538291565, 980.901573454939)">
<rect rx="6.0" ry="6.0" x="94.94442538291565" y="954.901573454939" width="55.303999999999995" height="52.0" class=""/>
</g>
<g transform="rotate(-4.0, 177.42006820659273, 931.1146644872292)">
<rect rx="6.0" ry="6.0" x="149.76806820659274" y="905.1146644872292" width="55.303999999999995" height="52.0" class=""/>
<text x="177.42006820659273" y="931.1146644872292" class="tap">
<tspan x="177.42006820659273" dy="-0.6em">PG</tspan><tspan x="177.42006820659273" dy="1.2em">DN</tspan></text>
</g>
<rect rx="6.0" ry="6.0" x="209.8" y="871.5127113059643" width="55.303999999999995" height="52.0" class=""/>
<rect rx="6.0" ry="6.0" x="269.104" y="899.2887113059644" width="55.303999999999995" height="52.0" class=""/>
<text x="296.756" y="925.2887113059644" class="tap">
<tspan x="296.756" dy="-0.6em">PG</tspan><tspan x="296.756" dy="1.2em">UP</tspan></text>
<rect rx="6.0" ry="6.0" x="328.352" y="908.2487113059643" width="55.303999999999995" height="52.0" class=""/>
<rect rx="6.0" ry="6.0" x="518.192" y="908.5287113059643" width="55.303999999999995" height="52.0" class=""/>
<text x="545.844" y="934.5287113059643" class="tap">/</text>
<rect rx="6.0" ry="6.0" x="577.496" y="899.2887113059644" width="55.303999999999995" height="52.0" class=""/>
<text x="605.148" y="925.2887113059644" class="tap">
<tspan x="605.148" dy="-0.6em">KP</tspan><tspan x="605.148" dy="1.2em">1</tspan></text>
<rect rx="6.0" ry="6.0" x="636.8000000000001" y="871.5127113059643" width="55.303999999999995" height="52.0" class=""/>
<text x="664.4520000000001" y="897.5127113059643" class="tap">
<tspan x="664.4520000000001" dy="-0.6em">KP</tspan><tspan x="664.4520000000001" dy="1.2em">2</tspan></text>
<g transform="rotate(4.0, 724.2600682065927, 931.1667581246995)">
<rect rx="6.0" ry="6.0" x="696.6080682065926" y="905.1667581246995" width="55.303999999999995" height="52.0" class=""/>
<text x="724.2600682065927" y="931.1667581246995" class="tap">
<tspan x="724.2600682065927" dy="-0.6em">KP</tspan><tspan x="724.2600682065927" dy="1.2em">3</tspan></text>
</g>
<g transform="rotate(10.0, 779.3644253829157, 980.9478491569896)">
<rect rx="6.0" ry="6.0" x="751.7124253829156" y="954.9478491569896" width="55.303999999999995" height="52.0" class=""/>
<text x="779.3644253829157" y="980.9478491569896" class="tap">-</text>
</g>
<g transform="rotate(10.0, 842.1404253829157, 966.4438491569897)">
<rect rx="6.0" ry="6.0" x="814.4884253829157" y="940.4438491569897" width="55.303999999999995" height="52.0" class=""/>
</g>
<rect rx="6.0" ry="6.0" x="252.52800000000002" y="967.4967113059644" width="55.303999999999995" height="52.0" class=""/>
<g transform="rotate(15.0, 345.8110459231361, 1002.6879582392272)">
<rect rx="6.0" ry="6.0" x="318.1590459231361" y="976.6879582392272" width="55.303999999999995" height="52.0" class=""/>
</g>
<g transform="rotate(30.0, 406.56824871130596, 1027.9507113059644)">
<rect rx="6.0" ry="6.0" x="378.91624871130597" y="1001.9507113059644" width="55.303999999999995" height="52.0" class="held"/>
</g>
<g transform="rotate(-30.0, 495.38424871130593, 1027.9227113059644)">
<rect rx="6.0" ry="6.0" x="467.73224871130594" y="1001.9227113059644" width="55.303999999999995" height="52.0" class=""/>
<text x="495.38424871130593" y="1027.9227113059644" class="tap">,</text>
</g>
<g transform="rotate(-15.0, 556.1489540768639, 1002.6879582392272)">
<rect rx="6.0" ry="6.0" x="528.4969540768639" y="976.6879582392272" width="55.303999999999995" height="52.0" class=""/>
<text x="556.1489540768639" y="1002.6879582392272" class="tap">.</text>
</g>
<rect rx="6.0" ry="6.0" x="594.072" y="967.4967113059644" width="55.303999999999995" height="52.0" class=""/>
<text x="621.724" y="993.4967113059644" class="tap">
<tspan x="621.724" dy="-0.6em">KP</tspan><tspan x="621.724" dy="1.2em">0</tspan></text>
<rect rx="6.0" ry="6.0" x="122.37182141183854" y="831.9832568221094" width="28.0" height="26.0" class="combo"/>
<text x="136.37182141183854" y="844.9832568221094" class="combo">ESC</text>
<path d="M634.8000000000001,644.5127113059643 h-23.652000000000044 a6.0,6.0 0 0 0 -6.0,6.0 v200.1093333333333"/>
<path d="M634.8000000000001,644.5127113059643 h23.652000000000044 a6.0,6.0 0 0 1 6.0,6.0 v172.33333333333334"/>
<rect rx="6.0" ry="6.0" x="620.8000000000001" y="631.5127113059643" width="28.0" height="26.0" class="combo"/>
<text x="634.8000000000001" y="644.5127113059643" class="combo">$$bspc$$</text>
<path d="M696.2879658967038,672.5127113059643 h-25.83596589670367 a6.0,6.0 0 0 0 -6.0,6.0 v144.33333333333334"/>
<path d="M696.2879658967038,672.5127113059643 h25.835965896703556 a6.0,6.0 0 0 1 6.0,6.0 v178.10328651459812"/>
<rect rx="6.0" ry="6.0" x="682.2879658967038" y="659.5127113059643" width="28.0" height="26.0" class="combo"/>
<text x="696.2879658967038" y="672.5127113059643" class="combo">DEL</text>
<path d="M666.6359658967037,700.2887113059643 h-55.48796589670371 a6.0,6.0 0 0 0 -6.0,6.0 v144.33333333333334"/>
<path d="M666.6359658967037,700.2887113059643 h55.4879658967036 a6.0,6.0 0 0 1 6.0,6.0 v150.32728651459817"/>
<rect rx="6.0" ry="6.0" x="652.6359658967037" y="687.2887113059643" width="28.0" height="26.0" class="combo"/>
<text x="666.6359658967037" y="700.2887113059643" class="combo">LA(BSPC)</text>
</g>
<g class="layer-raise_layer">
<text x="30.0" y="1095.0254226119287" class="label">raise_layer:</text>
<g transform="rotate(-10.0, 103.10757461708434, 1404.084560462954)">
<rect rx="6.0" ry="6.0" x="75.45557461708434" y="1378.084560462954" width="55.303999999999995" height="52.0" class=""/>
</g>
<g transform="rotate(-4.0, 169.6360682065927, 1352.9073757931935)">
<rect rx="6.0" ry="6.0" x="141.98406820659272" y="1326.9073757931935" width="55.303999999999995" height="52.0" class=""/>
<text x="169.6360682065927" y="1352.9073757931935" class="tap">&amp;</text>
</g>
<rect rx="6.0" ry="6.0" x="209.8" y="1293.0254226119287" width="55.303999999999995" height="52.0" class=""/>
<text x="237.452" y="1319.0254226119287" class="tap">&quot;</text>
<rect rx="6.0" ry="6.0" x="269.104" y="1320.8014226119287" width="55.303999999999995" height="52.0" class=""/>
<text x="296.756" y="1346.8014226119287" class="tap">[</text>
<rect rx="6.0" ry="6.0" x="328.352" y="1329.7614226119288" width="55.303999999999995" height="52.0" class=""/>
<text x="356.00399999999996" y="1355.7614226119288" class="tap">\</text>
<rect rx="6.0" ry="6.0" x="518.192" y="1329.7614226119288" width="55.303999999999995" height="52.0" class=""/>
<rect rx="6.0" ry="6.0" x="577.496" y="1320.8014226119287" width="55.303999999999995" height="52.0" class=""/>
<text x="605.148" y="1346.8014226119287" class="tap">]</text>
<rect rx="6.0" ry="6.0" x="636.8000000000001" y="1293.0254226119287" width="55.303999999999995" height="52.0" class=""/>
<text x="664.4520000000001" y="1319.0254226119287" class="tap">ü</text>
<g transform="rotate(4.0, 732.0440682065927, 1352.9594694306638)">
<rect rx="6.0" ry="6.0" x="704.3920682065926" y="1326.9594694306638" width="55.303999999999995" height="52.0" class=""/>
<text x="732.0440682065927" y="1352.9594694306638" class="tap">&#x27;</text>
</g>
<g transform="rotate(10.0, 798.7964253829157, 1404.140560462954)">
<rect rx="6.0" ry="6.0" x="771.1444253829156" y="1378.140560462954" width="55.303999999999995" height="52.0" class=""/>
</g>
<g transform="rotate(-10.0, 112.85157461708434, 1459.244560462954)">
<rect rx="6.0" ry="6.0" x="85.19957461708434" y="1433.244560462954" width="55.303999999999995" height="52.0" class=""/>
<text x="112.85157461708434" y="1459.244560462954" class="tap">ä</text>
</g>
<g transform="rotate(-4.0, 173.49993179340728, 1408.735469430664)">
<rect rx="6.0" ry="6.0" x="145.8479317934073" y="1382.735469430664" width="55.303999999999995" height="52.0" class=""/>
<text x="173.49993179340728" y="1408.735469430664" class="tap">$</text>
</g>
<rect rx="6.0" ry="6.0" x="209.8" y="1349.0254226119287" width="55.303999999999995" height="52.0" class=""/>
<text x="237.452" y="1375.0254226119287" class="tap">ß</text>
<rect rx="6.0" ry="6.0" x="269.104" y="1376.8014226119287" width="55.303999999999995" height="52.0" class=""/>
<text x="296.756" y="1402.8014226119287" class="tap">(</text>
<rect rx="6.0" ry="6.0" x="328.352" y="1385.7614226119285" width="55.303999999999995" height="52.0" class=""/>
<text x="356.00399999999996" y="1411.7614226119285" class="tap">!</text>
<rect rx="6.0" ry="6.0" x="518.192" y="1386.0414226119287" width="55.303999999999995" height="52.0" class=""/>
<text x="545.844" y="1412.0414226119287" class="tap">#</text>
<rect rx="6.0" ry="6.0" x="577.496" y="1376.8014226119287" width="55.303999999999995" height="52.0" class=""/>
<text x="605.148" y="1402.8014226119287" class="tap">)</text>
<rect rx="6.0" ry="6.0" x="636.8000000000001" y="1349.0254226119287" width="55.303999999999995" height="52.0" class=""/>
<text x="664.4520000000001" y="1375.0254226119287" class="tap">€</text>
<g transform="rotate(4.0, 728.1239317934073, 1408.7953757931934)">
<rect rx="6.0" ry="6.0" x="700.4719317934073" y="1382.7953757931934" width="55.303999999999995" height="52.0" class=""/>
<text x="728.1239317934073" y="1408.7953757931934" class="tap">$</text>
</g>
<g transform="rotate(10.0, 789.1084253829157, 1459.300560462954)">
<rect rx="6.0" ry="6.0" x="761.4564253829157" y="1433.300560462954" width="55.303999999999995" height="52.0" class=""/>
<text x="789.1084253829157" y="1459.300560462954" class="tap">ö</text>
</g>
<g transform="rotate(-10.0, 59.651574617084336, 1499.956560462954)">
<rect rx="6.0" ry="6.0" x="31.99957461708434" y="1473.956560462954" width="55.303999999999995" height="52.0" class=""/>
</g>
<g transform="rotate(-10.0, 122.59642538291565, 1514.4142847609032)">
<rect rx="6.0" ry="6.0" x="94.94442538291565" y="1488.4142847609032" width="55.303999999999995" height="52.0" class=""/>
</g>
<g transform="rotate(-4.0, 177.42006820659273, 1464.6273757931936)">
<rect rx="6.0" ry="6.0" x="149.76806820659274" y="1438.6273757931936" width="55.303999999999995" height="52.0" class=""/>
</g>
<rect rx="6.0" ry="6.0" x="209.8" y="1405.0254226119287" width="55.303999999999995" height="52.0" class=""/>
<rect rx="6.0" ry="6.0" x="269.104" y="1432.8014226119287" width="55.303999999999995" height="52.0" class=""/>
<text x="296.756" y="1458.8014226119287" class="tap">{</text>
<rect rx="6.0" ry="6.0" x="328.352" y="1441.7614226119288" width="55.303999999999995" height="52.0" class=""/>
<rect rx="6.0" ry="6.0" x="518.192" y="1442.0414226119287" width="55.303999999999995" height="52.0" class=""/>
<rect rx="6.0" ry="6.0" x="577.496" y="1432.8014226119287" width="55.303999999999995" height="52.0" class=""/>
<text x="605.148" y="1458.8014226119287" class="tap">}</text>
<rect rx="6.0" ry="6.0" x="636.8000000000001" y="1405.0254226119287" width="55.303999999999995" height="52.0" class=""/>
<g transform="rotate(4.0, 724.2600682065927, 1464.6794694306639)">
<rect rx="6.0" ry="6.0" x="696.6080682065926" y="1438.6794694306639" width="55.303999999999995" height="52.0" class=""/>
</g>
<g transform="rotate(10.0, 779.3644253829157, 1514.460560462954)">
<rect rx="6.0" ry="6.0" x="751.7124253829156" y="1488.460560462954" width="55.303999999999995" height="52.0" class=""/>
</g>
<g transform="rotate(10.0, 842.1404253829157, 1499.956560462954)">
<rect rx="6.0" ry="6.0" x="814.4884253829157" y="1473.956560462954" width="55.303999999999995" height="52.0" class=""/>
</g>
<rect rx="6.0" ry="6.0" x="252.52800000000002" y="1501.0094226119286" width="55.303999999999995" height="52.0" class=""/>
<g transform="rotate(15.0, 345.8110459231361, 1536.2006695451914)">
<rect rx="6.0" ry="6.0" x="318.1590459231361" y="1510.2006695451914" width="55.303999999999995" height="52.0" class=""/>
</g>
<g transform="rotate(30.0, 406.56824871130596, 1561.4634226119288)">
<rect rx="6.0" ry="6.0" x="378.91624871130597" y="1535.4634226119288" width="55.303999999999995" height="52.0" class=""/>
<text x="406.56824871130596" y="1561.4634226119288" class="tap">adjust_layer</text>
</g>
<g transform="rotate(-30.0, 495.38424871130593, 1561.4354226119287)">
<rect rx="6.0" ry="6.0" x="467.73224871130594" y="1535.4354226119287" width="55.303999999999995" height="52.0" class="held"/>
</g>
<g transform="rotate(-15.0, 556.1489540768639, 1536.2006695451914)">
<rect rx="6.0" ry="6.0" x="528.4969540768639" y="1510.2006695451914" width="55.303999999999995" height="52.0" class=""/>
</g>
<rect rx="6.0" ry="6.0" x="594.072" y="1501.0094226119286" width="55.303999999999995" height="52.0" class=""/>
<rect rx="6.0" ry="6.0" x="122.37182141183854" y="1365.4959681280739" width="28.0" height="26.0" class="combo"/>
<text x="136.37182141183854" y="1378.4959681280739" class="combo">ESC</text>
<path d="M634.8000000000001,1178.0254226119287 h-23.652000000000044 a6.0,6.0 0 0 0 -6.0,6.0 v200.1093333333334"/>
<path d="M634.8000000000001,1178.0254226119287 h23.652000000000044 a6.0,6.0 0 0 1 6.0,6.0 v172.33333333333334"/>
<rect rx="6.0" ry="6.0" x="620.8000000000001" y="1165.0254226119287" width="28.0" height="26.0" class="combo"/>
<text x="634.8000000000001" y="1178.0254226119287" class="combo">$$bspc$$</text>
<path d="M696.2879658967038,1206.0254226119287 h-25.83596589670367 a6.0,6.0 0 0 0 -6.0,6.0 v144.33333333333334"/>
<path d="M696.2879658967038,1206.0254226119287 h25.835965896703556 a6.0,6.0 0 0 1 6.0,6.0 v178.10328651459812"/>
<rect rx="6.0" ry="6.0" x="682.2879658967038" y="1193.0254226119287" width="28.0" height="26.0" class="combo"/>
<text x="696.2879658967038" y="1206.0254226119287" class="combo">DEL</text>
<path d="M666.6359658967037,1233.8014226119287 h-55.48796589670371 a6.0,6.0 0 0 0 -6.0,6.0 v144.33333333333334"/>
<path d="M666.6359658967037,1233.8014226119287 h55.4879658967036 a6.0,6.0 0 0 1 6.0,6.0 v150.32728651459806"/>
<rect rx="6.0" ry="6.0" x="652.6359658967037" y="1220.8014226119287" width="28.0" height="26.0" class="combo"/>
<text x="666.6359658967037" y="1233.8014226119287" class="combo">LA(BSPC)</text>
</g>
<g class="layer-adjust_layer">
<text x="30.0" y="1628.538133917893" class="label">adjust_layer:</text>
<g transform="rotate(-10.0, 103.10757461708434, 1937.5972717689183)">
<rect rx="6.0" ry="6.0" x="75.45557461708434" y="1911.5972717689183" width="55.303999999999995" height="52.0" class=""/>
<text x="103.10757461708434" y="1937.5972717689183" class="tap">RESET</text>
</g>
<g transform="rotate(-4.0, 169.6360682065927, 1886.4200870991579)">
<rect rx="6.0" ry="6.0" x="141.98406820659272" y="1860.4200870991579" width="55.303999999999995" height="52.0" class=""/>
<text x="169.6360682065927" y="1886.4200870991579" class="tap">
<tspan x="169.6360682065927" dy="-0.6em">BT</tspan><tspan x="169.6360682065927" dy="1.2em">CLR</tspan></text>
</g>
<rect rx="6.0" ry="6.0" x="209.8" y="1826.538133917893" width="55.303999999999995" height="52.0" class=""/>
<text x="237.452" y="1852.538133917893" class="tap">
<tspan x="237.452" dy="-0.6em">OUT</tspan><tspan x="237.452" dy="1.2em">TOG</tspan></text>
<rect rx="6.0" ry="6.0" x="269.104" y="1854.314133917893" width="55.303999999999995" height="52.0" class=""/>
<rect rx="6.0" ry="6.0" x="328.352" y="1863.274133917893" width="55.303999999999995" height="52.0" class=""/>
<rect rx="6.0" ry="6.0" x="518.192" y="1863.274133917893" width="55.303999999999995" height="52.0" class=""/>
<rect rx="6.0" ry="6.0" x="577.496" y="1854.314133917893" width="55.303999999999995" height="52.0" class=""/>
<text x="605.148" y="1880.314133917893" class="tap">F7</text>
<rect rx="6.0" ry="6.0" x="636.8000000000001" y="1826.538133917893" width="55.303999999999995" height="52.0" class=""/>
<text x="664.4520000000001" y="1852.538133917893" class="tap">F8</text>
<g transform="rotate(4.0, 732.0440682065927, 1886.4721807366282)">
<rect rx="6.0" ry="6.0" x="704.3920682065926" y="1860.4721807366282" width="55.303999999999995" height="52.0" class=""/>
<text x="732.0440682065927" y="1886.4721807366282" class="tap">F9</text>
</g>
<g transform="rotate(10.0, 798.7964253829157, 1937.6532717689183)">
<rect rx="6.0" ry="6.0" x="771.1444253829156" y="1911.6532717689183" width="55.303999999999995" height="52.0" class=""/>
<text x="798.7964253829157" y="1937.6532717689183" class="tap">F12</text>
</g>
<g transform="rotate(-10.0, 112.85157461708434, 1992.7572717689184)">
<rect rx="6.0" ry="6.0" x="85.19957461708434" y="1966.7572717689184" width="55.303999999999995" height="52.0" class=""/>
<text x="112.85157461708434" y="1992.7572717689184" class="tap">BOOT</text>
</g>
<g transform="rotate(-4.0, 173.49993179340728, 1942.2481807366282)">
<rect rx="6.0" ry="6.0" x="145.8479317934073" y="1916.2481807366282" width="55.303999999999995" height="52.0" class=""/>
<text x="173.49993179340728" y="1942.2481807366282" class="tap">
<tspan x="173.49993179340728" dy="-0.6em">BT</tspan><tspan x="173.49993179340728" dy="1.2em">NXT</tspan></text>
</g>
<rect rx="6.0" ry="6.0" x="209.8" y="1882.538133917893" width="55.303999999999995" height="52.0" class=""/>
<rect rx="6.0" ry="6.0" x="269.104" y="1910.314133917893" width="55.303999999999995" height="52.0" class=""/>
<rect rx="6.0" ry="6.0" x="328.352" y="1919.2741339178929" width="55.303999999999995" height="52.0" class=""/>
<rect rx="6.0" ry="6.0" x="518.192" y="1919.554133917893" width="55.303999999999995" height="52.0" class=""/>
<rect rx="6.0" ry="6.0" x="577.496" y="1910.314133917893" width="55.303999999999995" height="52.0" class=""/>
<text x="605.148" y="1936.314133917893" class="tap">F4</text>
<rect rx="6.0" ry="6.0" x="636.8000000000001" y="1882.538133917893" width="55.303999999999995" height="52.0" class=""/>
<text x="664.4520000000001" y="1908.538133917893" class="tap">F5</text>
<g transform="rotate(4.0, 728.1239317934073, 1942.3080870991578)">
<rect rx="6.0" ry="6.0" x="700.4719317934073" y="1916.3080870991578" width="55.303999999999995" height="52.0" class=""/>
<text x="728.1239317934073" y="1942.3080870991578" class="tap">F6</text>
</g>
<g transform="rotate(10.0, 789.1084253829157, 1992.8132717689184)">
<rect rx="6.0" ry="6.0" x="761.4564253829157" y="1966.8132717689184" width="55.303999999999995" height="52.0" class=""/>
<text x="789.1084253829157" y="1992.8132717689184" class="tap">F11</text>
</g>
<g transform="rotate(-10.0, 59.651574617084336, 2033.4692717689184)">
<rect rx="6.0" ry="6.0" x="31.99957461708434" y="2007.4692717689184" width="55.303999999999995" height="52.0" class=""/>
</g>
<g transform="rotate(-10.0, 122.59642538291565, 2047.9269960668676)">
<rect rx="6.0" ry="6.0" x="94.94442538291565" y="2021.9269960668676" width="55.303999999999995" height="52.0" class=""/>
</g>
<g transform="rotate(-4.0, 177.42006820659273, 1998.1400870991579)">
<rect rx="6.0" ry="6.0" x="149.76806820659274" y="1972.1400870991579" width="55.303999999999995" height="52.0" class=""/>
<text x="177.42006820659273" y="1998.1400870991579" class="tap">
<tspan x="177.42006820659273" dy="-0.6em">BT</tspan><tspan x="177.42006820659273" dy="1.2em">PRV</tspan></text>
</g>
<rect rx="6.0" ry="6.0" x="209.8" y="1938.538133917893" width="55.303999999999995" height="52.0" class=""/>
<rect rx="6.0" ry="6.0" x="269.104" y="1966.314133917893" width="55.303999999999995" height="52.0" class=""/>
<rect rx="6.0" ry="6.0" x="328.352" y="1975.274133917893" width="55.303999999999995" height="52.0" class=""/>
<rect rx="6.0" ry="6.0" x="518.192" y="1975.554133917893" width="55.303999999999995" height="52.0" class=""/>
<rect rx="6.0" ry="6.0" x="577.496" y="1966.314133917893" width="55.303999999999995" height="52.0" class=""/>
<text x="605.148" y="1992.314133917893" class="tap">F1</text>
<rect rx="6.0" ry="6.0" x="636.8000000000001" y="1938.538133917893" width="55.303999999999995" height="52.0" class=""/>
<text x="664.4520000000001" y="1964.538133917893" class="tap">F2</text>
<g transform="rotate(4.0, 724.2600682065927, 1998.1921807366282)">
<rect rx="6.0" ry="6.0" x="696.6080682065926" y="1972.1921807366282" width="55.303999999999995" height="52.0" class=""/>
<text x="724.2600682065927" y="1998.1921807366282" class="tap">F3</text>
</g>
<g transform="rotate(10.0, 779.3644253829157, 2047.9732717689183)">
<rect rx="6.0" ry="6.0" x="751.7124253829156" y="2021.9732717689183" width="55.303999999999995" height="52.0" class=""/>
<text x="779.3644253829157" y="2047.9732717689183" class="tap">F10</text>
</g>
<g transform="rotate(10.0, 842.1404253829157, 2033.4692717689184)">
<rect rx="6.0" ry="6.0" x="814.4884253829157" y="2007.4692717689184" width="55.303999999999995" height="52.0" class=""/>
</g>
<rect rx="6.0" ry="6.0" x="252.52800000000002" y="2034.522133917893" width="55.303999999999995" height="52.0" class=""/>
<g transform="rotate(15.0, 345.8110459231361, 2069.7133808511558)">
<rect rx="6.0" ry="6.0" x="318.1590459231361" y="2043.7133808511558" width="55.303999999999995" height="52.0" class=""/>
</g>
<g transform="rotate(30.0, 406.56824871130596, 2094.976133917893)">
<rect rx="6.0" ry="6.0" x="378.91624871130597" y="2068.976133917893" width="55.303999999999995" height="52.0" class="held"/>
</g>
<g transform="rotate(-30.0, 495.38424871130593, 2094.948133917893)">
<rect rx="6.0" ry="6.0" x="467.73224871130594" y="2068.948133917893" width="55.303999999999995" height="52.0" class="held"/>
</g>
<g transform="rotate(-15.0, 556.1489540768639, 2069.7133808511558)">
<rect rx="6.0" ry="6.0" x="528.4969540768639" y="2043.7133808511558" width="55.303999999999995" height="52.0" class=""/>
</g>
<rect rx="6.0" ry="6.0" x="594.072" y="2034.522133917893" width="55.303999999999995" height="52.0" class=""/>
<rect rx="6.0" ry="6.0" x="122.37182141183854" y="1899.0086794340382" width="28.0" height="26.0" class="combo"/>
<text x="136.37182141183854" y="1912.0086794340382" class="combo">ESC</text>
<path d="M634.8000000000001,1711.538133917893 h-23.652000000000044 a6.0,6.0 0 0 0 -6.0,6.0 v200.1093333333334"/>
<path d="M634.8000000000001,1711.538133917893 h23.652000000000044 a6.0,6.0 0 0 1 6.0,6.0 v172.33333333333334"/>
<rect rx="6.0" ry="6.0" x="620.8000000000001" y="1698.538133917893" width="28.0" height="26.0" class="combo"/>
<text x="634.8000000000001" y="1711.538133917893" class="combo">$$bspc$$</text>
<path d="M696.2879658967038,1739.538133917893 h-25.83596589670367 a6.0,6.0 0 0 0 -6.0,6.0 v144.33333333333334"/>
<path d="M696.2879658967038,1739.538133917893 h25.835965896703556 a6.0,6.0 0 0 1 6.0,6.0 v178.10328651459812"/>
<rect rx="6.0" ry="6.0" x="682.2879658967038" y="1726.538133917893" width="28.0" height="26.0" class="combo"/>
<text x="696.2879658967038" y="1739.538133917893" class="combo">DEL</text>
<path d="M666.6359658967037,1767.314133917893 h-55.48796589670371 a6.0,6.0 0 0 0 -6.0,6.0 v144.33333333333334"/>
<path d="M666.6359658967037,1767.314133917893 h55.4879658967036 a6.0,6.0 0 0 1 6.0,6.0 v150.32728651459806"/>
<rect rx="6.0" ry="6.0" x="652.6359658967037" y="1754.314133917893" width="28.0" height="26.0" class="combo"/>
<text x="666.6359658967037" y="1767.314133917893" class="combo">LA(BSPC)</text>
</g>
</svg>
