<svg width="906.2040938499077" height="2078.0508452238573" viewBox="0 0 906.2040938499077 2078.0508452238573" xmlns="http://www.w3.org/2000/svg">
<style>/* inherit to force styles through use tags*/
svg path {
    fill: inherit;
}
/* font and background color specifications */
svg.keymap {
    font-family: SFMono-Regular,Consolas,Liberation Mono,Menlo,monospace;
    font-size: 14px;
    font-kerning: normal;
    font-weight: bold;
    text-rendering: optimizeLegibility;
    fill: #24292e;
}

/* default key styling */
rect.key {
    fill: #f6f8fa;
    stroke: #c9cccf;
    stroke-width: 1;
}

/* color accent for combo boxes */
rect.combo {
    fill: #cdf;
}

/* color accent for held keys */
rect.held, rect.combo.held {
    fill: #fdd;
}

/* color accent for ghost (optional) keys */
rect.ghost, rect.combo.ghost {
    fill: #ddd;
}

text {
    text-anchor: middle;
    dominant-baseline: middle;
}

/* styling for layer labels */
text.label {
    font-weight: bold;
    text-anchor: start;
    stroke: white;
    stroke-width: 2;
    paint-order: stroke;
}

/* styling for combo tap, and key hold/shifted label text */
text.combo, text.hold, text.shifted {
    font-size: 11px;
}

text.hold {
    text-anchor: middle;
    dominant-baseline: auto;
}

text.shifted {
    text-anchor: middle;
    dominant-baseline: hanging;
}

/* styling for hold/shifted label text in combo box */
text.combo.hold, text.combo.shifted {
    font-size: 8px;
}

/* lighter symbol for transparent keys */
text.trans {
    fill: #7b7e81;
}

/* styling for combo dendrons */
path.combo {
    stroke-width: 1;
    stroke: gray;
    fill: none;
}

/* Start Tabler Icons Cleanup */
/* cannot use height/width with glyphs */
.icon-tabler > path {
    fill: inherit;
    stroke: inherit;
}
/* hide tabler's default box */
.icon-tabler > path[stroke="none"][fill="none"] {
    visibility: collapse;
}
/* End Tabler Icons Cleanup */
</style>
<g class="layer-base_layer">
<text x="30.0" y="28.0" class="label">base_layer:</text>
<g transform="rotate(-10.0, 103.10757461708434, 309.05913785102535)">
<rect rx="6.0" ry="6.0" x="75.45557461708434" y="283.05913785102535" width="55.303999999999995" height="52.0" class=""/>
<text x="103.10757461708434" y="309.05913785102535" class="tap">Q</text>
</g>
<g transform="rotate(-4.0, 169.6360682065927, 257.88195318126486)">
<rect rx="6.0" ry="6.0" x="141.98406820659272" y="231.88195318126486" width="55.303999999999995" height="52.0" class=""/>
<text x="169.6360682065927" y="257.88195318126486" class="tap">W</text>
</g>
<rect rx="6.0" ry="6.0" x="209.8" y="198.0" width="55.303999999999995" height="52.0" class=""/>
<text x="237.452" y="224.0" class="tap">F</text>
<rect rx="6.0" ry="6.0" x="269.104" y="225.776" width="55.303999999999995" height="52.0" class=""/>
<text x="296.756" y="251.776" class="tap">P</text>
<rect rx="6.0" ry="6.0" x="328.352" y="234.736" width="55.303999999999995" height="52.0" class=""/>
<text x="356.00399999999996" y="260.736" class="tap">B</text>
<rect rx="6.0" ry="6.0" x="518.192" y="234.736" width="55.303999999999995" height="52.0" class=""/>
<text x="545.844" y="260.736" class="tap">J</text>
<rect rx="6.0" ry="6.0" x="577.496" y="225.776" width="55.303999999999995" height="52.0" class=""/>
<text x="605.148" y="251.776" class="tap">L</text>
<rect rx="6.0" ry="6.0" x="636.8000000000001" y="198.0" width="55.303999999999995" height="52.0" class=""/>
<text x="664.4520000000001" y="224.0" class="tap">U</text>
<g transform="rotate(4.0, 732.0440682065927, 257.93404681873517)">
<rect rx="6.0" ry="6.0" x="704.3920682065926" y="231.93404681873517" width="55.303999999999995" height="52.0" class=""/>
<text x="732.0440682065927" y="257.93404681873517" class="tap">Y</text>
</g>
<g transform="rotate(10.0, 798.7964253829157, 309.11513785102534)">
<rect rx="6.0" ry="6.0" x="771.1444253829156" y="283.11513785102534" width="55.303999999999995" height="52.0" class=""/>
<text x="798.7964253829157" y="309.11513785102534" class="tap">;</text>
</g>
<g transform="rotate(-10.0, 112.85157461708434, 364.2191378510253)">
<rect rx="6.0" ry="6.0" x="85.19957461708434" y="338.2191378510253" width="55.303999999999995" height="52.0" class=""/>
<text x="112.85157461708434" y="364.2191378510253" class="tap">A</text>
<text x="112.85157461708434" y="388.2191378510253" class="hold">LCTRL</text>
</g>
<g transform="rotate(-4.0, 173.49993179340728, 313.7100468187352)">
<rect rx="6.0" ry="6.0" x="145.8479317934073" y="287.7100468187352" width="55.303999999999995" height="52.0" class=""/>
<text x="173.49993179340728" y="313.7100468187352" class="tap">R</text>
<text x="173.49993179340728" y="337.7100468187352" class="hold">LALT</text>
</g>
<rect rx="6.0" ry="6.0" x="209.8" y="254.0" width="55.303999999999995" height="52.0" class=""/>
<text x="237.452" y="280.0" class="tap">S</text>
<text x="237.452" y="304.0" class="hold">LGUI</text>
<rect rx="6.0" ry="6.0" x="269.104" y="281.776" width="55.303999999999995" height="52.0" class=""/>
<text x="296.756" y="307.776" class="tap">T</text>
<text x="296.756" y="331.776" class="hold">LSHFT</text>
<rect rx="6.0" ry="6.0" x="328.352" y="290.736" width="55.303999999999995" height="52.0" class=""/>
<text x="356.00399999999996" y="316.736" class="tap">G</text>
<rect rx="6.0" ry="6.0" x="518.192" y="291.016" width="55.303999999999995" height="52.0" class=""/>
<text x="545.844" y="317.016" class="tap">M</text>
<rect rx="6.0" ry="6.0" x="577.496" y="281.776" width="55.303999999999995" height="52.0" class=""/>
<text x="605.148" y="307.776" class="tap">N</text>
<text x="605.148" y="331.776" class="hold">RSHFT</text>
<rect rx="6.0" ry="6.0" x="636.8000000000001" y="254.0" width="55.303999999999995" height="52.0" class=""/>
<text x="664.4520000000001" y="280.0" class="tap">E</text>
<text x="664.4520000000001" y="304.0" class="hold">RGUI</text>
<g transform="rotate(4.0, 728.1239317934073, 313.76995318126484)">
<rect rx="6.0" ry="6.0" x="700.4719317934073" y="287.76995318126484" width="55.303999999999995" height="52.0" class=""/>
<text x="728.1239317934073" y="313.76995318126484" class="tap">I</text>
<text x="728.1239317934073" y="337.76995318126484" class="hold">LALT</text>
</g>
<g transform="rotate(10.0, 789.1084253829157, 364.2751378510253)">
<rect rx="6.0" ry="6.0" x="761.4564253829157" y="338.2751378510253" width="55.303999999999995" height="52.0" class=""/>
<text x="789.1084253829157" y="364.2751378510253" class="tap">O</text>
<text x="789.1084253829157" y="388.2751378510253" class="hold">RCTRL</text>
</g>
<g transform="rotate(-10.0, 59.651574617084336, 404.9311378510253)">
<rect rx="6.0" ry="6.0" x="31.99957461708434" y="378.9311378510253" width="55.303999999999995" height="52.0" class=""/>
<text x="59.651574617084336" y="404.9311378510253" class="tap">TAB</text>
</g>
<g transform="rotate(-10.0, 122.59642538291565, 419.3888621489747)">
<rect rx="6.0" ry="6.0" x="94.94442538291565" y="393.3888621489747" width="55.303999999999995" height="52.0" class=""/>
<text x="122.59642538291565" y="419.3888621489747" class="tap">Z</text>
</g>
<g transform="rotate(-4.0, 177.42006820659273, 369.60195318126483)">
<rect rx="6.0" ry="6.0" x="149.76806820659274" y="343.60195318126483" width="55.303999999999995" height="52.0" class=""/>
<text x="177.42006820659273" y="369.60195318126483" class="tap">X</text>
</g>
<rect rx="6.0" ry="6.0" x="209.8" y="310.0" width="55.303999999999995" height="52.0" class=""/>
<text x="237.452" y="336.0" class="tap">C</text>
<rect rx="6.0" ry="6.0" x="269.104" y="337.776" width="55.303999999999995" height="52.0" class=""/>
<text x="296.756" y="363.776" class="tap">D</text>
<rect rx="6.0" ry="6.0" x="328.352" y="346.736" width="55.303999999999995" height="52.0" class=""/>
<text x="356.00399999999996" y="372.736" class="tap">V</text>
<rect rx="6.0" ry="6.0" x="518.192" y="347.01599999999996" width="55.303999999999995" height="52.0" class=""/>
<text x="545.844" y="373.01599999999996" class="tap">K</text>
<rect rx="6.0" ry="6.0" x="577.496" y="337.776" width="55.303999999999995" height="52.0" class=""/>
<text x="605.148" y="363.776" class="tap">H</text>
<rect rx="6.0" ry="6.0" x="636.8000000000001" y="310.0" width="55.303999999999995" height="52.0" class=""/>
<text x="664.4520000000001" y="336.0" class="tap">,</text>
<g transform="rotate(4.0, 724.2600682065927, 369.6540468187352)">
<rect rx="6.0" ry="6.0" x="696.6080682065926" y="343.6540468187352" width="55.303999999999995" height="52.0" class=""/>
<text x="724.2600682065927" y="369.6540468187352" class="tap">.</text>
</g>
<g transform="rotate(10.0, 779.3644253829157, 419.43513785102533)">
<rect rx="6.0" ry="6.0" x="751.7124253829156" y="393.43513785102533" width="55.303999999999995" height="52.0" class=""/>
<text x="779.3644253829157" y="419.43513785102533" class="tap">/</text>
</g>
<g transform="rotate(10.0, 842.1404253829157, 404.9311378510253)">
<rect rx="6.0" ry="6.0" x="814.4884253829157" y="378.9311378510253" width="55.303999999999995" height="52.0" class=""/>
<text x="842.1404253829157" y="404.9311378510253" class="tap">RET</text>
</g>
<rect rx="6.0" ry="6.0" x="252.52800000000002" y="405.98400000000004" width="55.303999999999995" height="52.0" class=""/>
<text x="280.18" y="431.98400000000004" class="tap">LGUI</text>
<g transform="rotate(15.0, 345.8110459231361, 441.1752469332629)">
<rect rx="6.0" ry="6.0" x="318.1590459231361" y="415.1752469332629" width="55.303999999999995" height="52.0" class=""/>
<text x="345.8110459231361" y="441.1752469332629" class="tap">LSHFT</text>
<text x="345.8110459231361" y="465.1752469332629" class="hold">LSHFT</text>
</g>
<g transform="rotate(30.0, 406.56824871130596, 466.438)">
<rect rx="6.0" ry="6.0" x="378.91624871130597" y="440.438" width="55.303999999999995" height="52.0" class=""/>
<text x="406.56824871130596" y="466.438" class="tap">lower_layer</text>
</g>
<g transform="rotate(-30.0, 495.38424871130593, 466.41)">
<rect rx="6.0" ry="6.0" x="467.73224871130594" y="440.41" width="55.303999999999995" height="52.0" class=""/>
<text x="495.38424871130593" y="466.41" class="tap">raise_layer</text>
</g>
<g transform="rotate(-15.0, 556.1489540768639, 441.1752469332629)">
<rect rx="6.0" ry="6.0" x="528.4969540768639" y="415.1752469332629" width="55.303999999999995" height="52.0" class=""/>
<text x="556.1489540768639" y="441.1752469332629" class="tap">SPACE</text>
<text x="556.1489540768639" y="465.1752469332629" class="hold">RSHFT</text>
</g>
<rect rx="6.0" ry="6.0" x="594.072" y="405.98400000000004" width="55.303999999999995" height="52.0" class=""/>
<text x="621.724" y="431.98400000000004" class="tap">LALT</text>
<rect rx="6.0" ry="6.0" x="122.37182141183854" y="270.4705455161451" width="28.0" height="26.0" class="combo"/>
<text x="136.37182141183854" y="283.4705455161451" class="combo">ESC</text>
<path d="M634.8000000000001,139.0 h-23.652000000000044 a6.0,6.0 0 0 0 -6.0,6.0 v144.10933333333335"/>
<path d="M634.8000000000001,139.0 h23.652000000000044 a6.0,6.0 0 0 1 6.0,6.0 v116.33333333333333"/>
<rect rx="6.0" ry="6.0" x="620.8000000000001" y="126.0" width="28.0" height="26.0" class="combo"/>
<text x="634.8000000000001" y="139.0" class="combo">$$bspc$$</text>
<path d="M696.2879658967038,139.0 h-25.83596589670367 a6.0,6.0 0 0 0 -6.0,6.0 v116.33333333333333"/>
<path d="M696.2879658967038,139.0 h25.835965896703556 a6.0,6.0 0 0 1 6.0,6.0 v150.10328651459818"/>
<rect rx="6.0" ry="6.0" x="682.2879658967038" y="126.0" width="28.0" height="26.0" class="combo"/>
<text x="696.2879658967038" y="139.0" class="combo">DEL</text>
<path d="M666.6359658967037,138.776 h-55.48796589670371 a6.0,6.0 0 0 0 -6.0,6.0 v144.33333333333334"/>
<path d="M666.6359658967037,138.776 h55.4879658967036 a6.0,6.0 0 0 1 6.0,6.0 v150.32728651459817"/>
<rect rx="6.0" ry="6.0" x="652.6359658967037" y="125.77600000000001" width="28.0" height="26.0" class="combo"/>
<text x="666.6359658967037" y="138.776" class="combo">LA(BSPC)</text>
</g>
<g class="layer-lower_layer">
<text x="30.0" y="533.5127113059643" class="label">lower_layer:</text>
<g transform="rotate(-10.0, 103.10757461708434, 814.5718491569896)">
<rect rx="6.0" ry="6.0" x="75.45557461708434" y="788.5718491569896" width="55.303999999999995" height="52.0" class=""/>
</g>
<g transform="rotate(-4.0, 169.6360682065927, 763.3946644872292)">
<rect rx="6.0" ry="6.0" x="141.98406820659272" y="737.3946644872292" width="55.303999999999995" height="52.0" class=""/>
<text x="169.6360682065927" y="763.3946644872292" class="tap">HOME</text>
</g>
<rect rx="6.0" ry="6.0" x="209.8" y="703.5127113059643" width="55.303999999999995" height="52.0" class=""/>
<text x="237.452" y="729.5127113059643" class="tap">UP</text>
<rect rx="6.0" ry="6.0" x="269.104" y="731.2887113059643" width="55.303999999999995" height="52.0" class=""/>
<text x="296.756" y="757.2887113059643" class="tap">END</text>
<rect rx="6.0" ry="6.0" x="328.352" y="740.2487113059643" width="55.303999999999995" height="52.0" class=""/>
<rect rx="6.0" ry="6.0" x="518.192" y="740.2487113059643" width="55.303999999999995" height="52.0" class=""/>
<text x="545.844" y="766.2487113059643" class="tap">%</text>
<rect rx="6.0" ry="6.0" x="577.496" y="731.2887113059643" width="55.303999999999995" height="52.0" class=""/>
<text x="605.148" y="757.2887113059643" class="tap">
<tspan x="605.148" dy="-0.6em">KP</tspan><tspan x="605.148" dy="1.2em">7</tspan></text>
<rect rx="6.0" ry="6.0" x="636.8000000000001" y="703.5127113059643" width="55.303999999999995" height="52.0" class=""/>
<text x="664.4520000000001" y="729.5127113059643" class="tap">
<tspan x="664.4520000000001" dy="-0.6em">KP</tspan><tspan x="664.4520000000001" dy="1.2em">8</tspan></text>
<g transform="rotate(4.0, 732.0440682065927, 763.4467581246995)">
<rect rx="6.0" ry="6.0" x="704.3920682065926" y="737.4467581246995" width="55.303999999999995" height="52.0" class=""/>
<text x="732.0440682065927" y="763.4467581246995" class="tap">
<tspan x="732.0440682065927" dy="-0.6em">KP</tspan><tspan x="732.0440682065927" dy="1.2em">9</tspan></text>
</g>
<g transform="rotate(10.0, 798.7964253829157, 814.6278491569897)">
<rect rx="6.0" ry="6.0" x="771.1444253829156" y="788.6278491569897" width="55.303999999999995" height="52.0" class=""/>
<text x="798.7964253829157" y="814.6278491569897" class="tap">=</text>
</g>
<g transform="rotate(-10.0, 112.85157461708434, 869.7318491569897)">
<rect rx="6.0" ry="6.0" x="85.19957461708434" y="843.7318491569897" width="55.303999999999995" height="52.0" class=""/>
<text x="112.85157461708434" y="869.7318491569897" class="tap">LC(LEFT)</text>
</g>
<g transform="rotate(-4.0, 173.49993179340728, 819.2227581246996)">
<rect rx="6.0" ry="6.0" x="145.8479317934073" y="793.2227581246996" width="55.303999999999995" height="52.0" class=""/>
<text x="173.49993179340728" y="819.2227581246996" class="tap">LEFT</text>
</g>
<rect rx="6.0" ry="6.0" x="209.8" y="759.5127113059643" width="55.303999999999995" height="52.0" class=""/>
<text x="237.452" y="785.5127113059643" class="tap">DOWN</text>
<rect rx="6.0" ry="6.0" x="269.104" y="787.2887113059643" width="55.303999999999995" height="52.0" class=""/>
<text x="296.756" y="813.2887113059643" class="tap">RIGHT</text>
<rect rx="6.0" ry="6.0" x="328.352" y="796.2487113059643" width="55.303999999999995" height="52.0" class=""/>
<text x="356.00399999999996" y="822.2487113059643" class="tap">LC(RIGHT)</text>
<rect rx="6.0" ry="6.0" x="518.192" y="796.5287113059643" width="55.303999999999995" height="52.0" class=""/>
<text x="545.844" y="822.5287113059643" class="tap">*</text>
<rect rx="6.0" ry="6.0" x="577.496" y="787.2887113059643" width="55.303999999999995" height="52.0" class=""/>
<text x="605.148" y="813.2887113059643" class="tap">
<tspan x="605.148" dy="-0.6em">KP</tspan><tspan x="605.148" dy="1.2em">4</tspan></text>
<rect rx="6.0" ry="6.0" x="636.8000000000001" y="759.5127113059643" width="55.303999999999995" height="52.0" class=""/>
<text x="664.4520000000001" y="785.5127113059643" class="tap">
<tspan x="664.4520000000001" dy="-0.6em">KP</tspan><tspan x="664.4520000000001" dy="1.2em">5</tspan></text>
<g transform="rotate(4.0, 728.1239317934073, 819.2826644872291)">
<rect rx="6.0" ry="6.0" x="700.4719317934073" y="793.2826644872291" width="55.303999999999995" height="52.0" class=""/>
<text x="728.1239317934073" y="819.2826644872291" class="tap">
<tspan x="728.1239317934073" dy="-0.6em">KP</tspan><tspan x="728.1239317934073" dy="1.2em">6</tspan></text>
</g>
<g transform="rotate(10.0, 789.1084253829157, 869.7878491569896)">
<rect rx="6.0" ry="6.0" x="761.4564253829157" y="843.7878491569896" width="55.303999999999995" height="52.0" class=""/>
<text x="789.1084253829157" y="869.7878491569896" class="tap">+</text>
</g>
<g transform="rotate(-10.0, 59.651574617084336, 910.4438491569897)">
<rect rx="6.0" ry="6.0" x="31.99957461708434" y="884.4438491569897" width="55.303999999999995" height="52.0" class=""/>
</g>
<g transform="rotate(-10.0, 122.59642538291565, 924.901573454939)">
<rect rx="6.0" ry="6.0" x="94.94442538291565" y="898.901573454939" width="55.303999999999995" height="52.0" class=""/>
</g>
<g transform="rotate(-4.0, 177.42006820659273, 875.1146644872292)">
<rect rx="6.0" ry="6.0" x="149.76806820659274" y="849.1146644872292" width="55.303999999999995" height="52.0" class=""/>
<text x="177.42006820659273" y="875.1146644872292" class="tap">
<tspan x="177.42006820659273" dy="-0.6em">PG</tspan><tspan x="177.42006820659273" dy="1.2em">DN</tspan></text>
</g>
<rect rx="6.0" ry="6.0" x="209.8" y="815.5127113059643" width="55.303999999999995" height="52.0" class=""/>
<rect rx="6.0" ry="6.0" x="269.104" y="843.2887113059644" width="55.303999999999995" height="52.0" class=""/>
<text x="296.756" y="869.2887113059644" class="tap">
<tspan x="296.756" dy="-0.6em">PG</tspan><tspan x="296.756" dy="1.2em">UP</tspan></text>
<rect rx="6.0" ry="6.0" x="328.352" y="852.2487113059643" width="55.303999999999995" height="52.0" class=""/>
<rect rx="6.0" ry="6.0" x="518.192" y="852.5287113059643" width="55.303999999999995" height="52.0" class=""/>
<text x="545.844" y="878.5287113059643" class="tap">/</text>
<rect rx="6.0" ry="6.0" x="577.496" y="843.2887113059644" width="55.303999999999995" height="52.0" class=""/>
<text x="605.148" y="869.2887113059644" class="tap">
<tspan x="605.148" dy="-0.6em">KP</tspan><tspan x="605.148" dy="1.2em">1</tspan></text>
<rect rx="6.0" ry="6.0" x="636.8000000000001" y="815.5127113059643" width="55.303999999999995" height="52.0" class=""/>
<text x="664.4520000000001" y="841.5127113059643" class="tap">
<tspan x="664.4520000000001" dy="-0.6em">KP</tspan><tspan x="664.4520000000001" dy="1.2em">2</tspan></text>
<g transform="rotate(4.0, 724.2600682065927, 875.1667581246995)">
<rect rx="6.0" ry="6.0" x="696.6080682065926" y="849.1667581246995" width="55.303999999999995" height="52.0" class=""/>
<text x="724.2600682065927" y="875.1667581246995" class="tap">
<tspan x="724.2600682065927" dy="-0.6em">KP</tspan><tspan x="724.2600682065927" dy="1.2em">3</tspan></text>
</g>
<g transform="rotate(10.0, 779.3644253829157, 924.9478491569896)">
<rect rx="6.0" ry="6.0" x="751.7124253829156" y="898.9478491569896" width="55.303999999999995" height="52.0" class=""/>
<text x="779.3644253829157" y="924.9478491569896" class="tap">-</text>
</g>
<g transform="rotate(10.0, 842.1404253829157, 910.4438491569897)">
<rect rx="6.0" ry="6.0" x="814.4884253829157" y="884.4438491569897" width="55.303999999999995" height="52.0" class=""/>
</g>
<rect rx="6.0" ry="6.0" x="252.52800000000002" y="911.4967113059644" width="55.303999999999995" height="52.0" class=""/>
<g transform="rotate(15.0, 345.8110459231361, 946.6879582392272)">
<rect rx="6.0" ry="6.0" x="318.1590459231361" y="920.6879582392272" width="55.303999999999995" height="52.0" class=""/>
</g>
<g transform="rotate(30.0, 406.56824871130596, 971.9507113059643)">
<rect rx="6.0" ry="6.0" x="378.91624871130597" y="945.9507113059643" width="55.303999999999995" height="52.0" class="held"/>
</g>
<g transform="rotate(-30.0, 495.38424871130593, 971.9227113059644)">
<rect rx="6.0" ry="6.0" x="467.73224871130594" y="945.9227113059644" width="55.303999999999995" height="52.0" class=""/>
<text x="495.38424871130593" y="971.9227113059644" class="tap">,</text>
</g>
<g transform="rotate(-15.0, 556.1489540768639, 946.6879582392272)">
<rect rx="6.0" ry="6.0" x="528.4969540768639" y="920.6879582392272" width="55.303999999999995" height="52.0" class=""/>
<text x="556.1489540768639" y="946.6879582392272" class="tap">.</text>
</g>
<rect rx="6.0" ry="6.0" x="594.072" y="911.4967113059644" width="55.303999999999995" height="52.0" class=""/>
<text x="621.724" y="937.4967113059644" class="tap">
<tspan x="621.724" dy="-0.6em">KP</tspan><tspan x="621.724" dy="1.2em">0</tspan></text>
<rect rx="6.0" ry="6.0" x="122.37182141183854" y="775.9832568221094" width="28.0" height="26.0" class="combo"/>
<text x="136.37182141183854" y="788.9832568221094" class="combo">ESC</text>
<path d="M634.8000000000001,644.5127113059643 h-23.652000000000044 a6.0,6.0 0 0 0 -6.0,6.0 v144.1093333333333"/>
<path d="M634.8000000000001,644.5127113059643 h23.652000000000044 a6.0,6.0 0 0 1 6.0,6.0 v116.33333333333333"/>
<rect rx="6.0" ry="6.0" x="620.8000000000001" y="631.5127113059643" width="28.0" height="26.0" class="combo"/>
<text x="634.8000000000001" y="644.5127113059643" class="combo">$$bspc$$</text>
<path d="M696.2879658967038,644.5127113059643 h-25.83596589670367 a6.0,6.0 0 0 0 -6.0,6.0 v116.33333333333333"/>
<path d="M696.2879658967038,644.5127113059643 h25.835965896703556 a6.0,6.0 0 0 1 6.0,6.0 v150.10328651459812"/>
<rect rx="6.0" ry="6.0" x="682.2879658967038" y="631.5127113059643" width="28.0" height="26.0" class="combo"/>
<text x="696.2879658967038" y="644.5127113059643" class="combo">DEL</text>
<path d="M666.6359658967037,644.2887113059643 h-55.48796589670371 a6.0,6.0 0 0 0 -6.0,6.0 v144.33333333333334"/>
<path d="M666.6359658967037,644.2887113059643 h55.4879658967036 a6.0,6.0 0 0 1 6.0,6.0 v150.32728651459817"/>
<rect rx="6.0" ry="6.0" x="652.6359658967037" y="631.2887113059643" width="28.0" height="26.0" class="combo"/>
<text x="666.6359658967037" y="644.2887113059643" class="combo">LA(BSPC)</text>
</g>
<g class="layer-raise_layer">
<text x="30.0" y="1039.0254226119287" class="label">raise_layer:</text>
<g transform="rotate(-10.0, 103.10757461708434, 1320.084560462954)">
<rect rx="6.0" ry="6.0" x="75.45557461708434" y="1294.084560462954" width="55.303999999999995" height="52.0" class=""/>
</g>
<g transform="rotate(-4.0, 169.6360682065927, 1268.9073757931935)">
<rect rx="6.0" ry="6.0" x="141.98406820659272" y="1242.9073757931935" width="55.303999999999995" height="52.0" class=""/>
<text x="169.6360682065927" y="1268.9073757931935" class="tap">&amp;</text>
</g>
<rect rx="6.0" ry="6.0" x="209.8" y="1209.0254226119287" width="55.303999999999995" height="52.0" class=""/>
<text x="237.452" y="1235.0254226119287" class="tap">&quot;</text>
<rect rx="6.0" ry="6.0" x="269.104" y="1236.8014226119287" width="55.303999999999995" height="52.0" class=""/>
<text x="296.756" y="1262.8014226119287" class="tap">[</text>
<rect rx="6.0" ry="6.0" x="328.352" y="1245.7614226119288" width="55.303999999999995" height="52.0" class=""/>
<text x="356.00399999999996" y="1271.7614226119288" class="tap">\</text>
<rect rx="6.0" ry="6.0" x="518.192" y="1245.7614226119288" width="55.303999999999995" height="52.0" class=""/>
<rect rx="6.0" ry="6.0" x="577.496" y="1236.8014226119287" width="55.303999999999995" height="52.0" class=""/>
<text x="605.148" y="1262.8014226119287" class="tap">]</text>
<rect rx="6.0" ry="6.0" x="636.8000000000001" y="1209.0254226119287" width="55.303999999999995" height="52.0" class=""/>
<text x="664.4520000000001" y="1235.0254226119287" class="tap">ü</text>
<g transform="rotate(4.0, 732.0440682065927, 1268.9594694306638)">
<rect rx="6.0" ry="6.0" x="704.3920682065926" y="1242.9594694306638" width="55.303999999999995" height="52.0" class=""/>
<text x="732.0440682065927" y="1268.9594694306638" class="tap">&#x27;</text>
</g>
<g transform="rotate(10.0, 798.7964253829157, 1320.140560462954)">
<rect rx="6.0" ry="6.0" x="771.1444253829156" y="1294.140560462954" width="55.303999999999995" height="52.0" class=""/>
</g>
<g transform="rotate(-10.0, 112.85157461708434, 1375.244560462954)">
<rect rx="6.0" ry="6.0" x="85.19957461708434" y="1349.244560462954" width="55.303999999999995" height="52.0" class=""/>
<text x="112.85157461708434" y="1375.244560462954" class="tap">ä</text>
</g>
<g transform="rotate(-4.0, 173.49993179340728, 1324.735469430664)">
<rect rx="6.0" ry="6.0" x="145.8479317934073" y="1298.735469430664" width="55.303999999999995" height="52.0" class=""/>
<text x="173.49993179340728" y="1324.735469430664" class="tap">$</text>
</g>
<rect rx="6.0" ry="6.0" x="209.8" y="1265.0254226119287" width="55.303999999999995" height="52.0" class=""/>
<text x="237.452" y="1291.0254226119287" class="tap">ß</text>
<rect rx="6.0" ry="6.0" x="269.104" y="1292.8014226119287" width="55.303999999999995" height="52.0" class=""/>
<text x="296.756" y="1318.8014226119287" class="tap">(</text>
<rect rx="6.0" ry="6.0" x="328.352" y="1301.7614226119285" width="55.303999999999995" height="52.0" class=""/>
<text x="356.00399999999996" y="1327.7614226119285" class="tap">!</text>
<rect rx="6.0" ry="6.0" x="518.192" y="1302.0414226119287" width="55.303999999999995" height="52.0" class=""/>
<text x="545.844" y="1328.0414226119287" class="tap">#</text>
<rect rx="6.0" ry="6.0" x="577.496" y="1292.8014226119287" width="55.303999999999995" height="52.0" class=""/>
<text x="605.148" y="1318.8014226119287" class="tap">)</text>
<rect rx="6.0" ry="6.0" x="636.8000000000001" y="1265.0254226119287" width="55.303999999999995" height="52.0" class=""/>
<text x="664.4520000000001" y="1291.0254226119287" class="tap">€</text>
<g transform="rotate(4.0, 728.1239317934073, 1324.7953757931934)">
<rect rx="6.0" ry="6.0" x="700.4719317934073" y="1298.7953757931934" width="55.303999999999995" height="52.0" class=""/>
<text x="728.1239317934073" y="1324.7953757931934" class="tap">$</text>
</g>
<g transform="rotate(10.0, 789.1084253829157, 1375.300560462954)">
<rect rx="6.0" ry="6.0" x="761.4564253829157" y="1349.300560462954" width="55.303999999999995" height="52.0" class=""/>
<text x="789.1084253829157" y="1375.300560462954" class="tap">ö</text>
</g>
<g transform="rotate(-10.0, 59.651574617084336, 1415.956560462954)">
<rect rx="6.0" ry="6.0" x="31.99957461708434" y="1389.956560462954" width="55.303999999999995" height="52.0" class=""/>
</g>
<g transform="rotate(-10.0, 122.59642538291565, 1430.4142847609032)">
<rect rx="6.0" ry="6.0" x="94.94442538291565" y="1404.4142847609032" width="55.303999999999995" height="52.0" class=""/>
</g>
<g transform="rotate(-4.0, 177.42006820659273, 1380.6273757931936)">
<rect rx="6.0" ry="6.0" x="149.76806820659274" y="1354.6273757931936" width="55.303999999999995" height="52.0" class=""/>
</g>
<rect rx="6.0" ry="6.0" x="209.8" y="1321.0254226119287" width="55.303999999999995" height="52.0" class=""/>
<rect rx="6.0" ry="6.0" x="269.104" y="1348.8014226119287" width="55.303999999999995" height="52.0" class=""/>
<text x="296.756" y="1374.8014226119287" class="tap">{</text>
<rect rx="6.0" ry="6.0" x="328.352" y="1357.7614226119288" width="55.303999999999995" height="52.0" class=""/>
<rect rx="6.0" ry="6.0" x="518.192" y="1358.0414226119287" width="55.303999999999995" height="52.0" class=""/>
<rect rx="6.0" ry="6.0" x="577.496" y="1348.8014226119287" width="55.303999999999995" height="52.0" class=""/>
<text x="605.148" y="1374.8014226119287" class="tap">}</text>
<rect rx="6.0" ry="6.0" x="636.8000000000001" y="1321.0254226119287" width="55.303999999999995" height="52.0" class=""/>
<g transform="rotate(4.0, 724.2600682065927, 1380.6794694306639)">
<rect rx="6.0" ry="6.0" x="696.6080682065926" y="1354.6794694306639" width="55.303999999999995" height="52.0" class=""/>
</g>
<g transform="rotate(10.0, 779.3644253829157, 1430.460560462954)">
<rect rx="6.0" ry="6.0" x="751.7124253829156" y="1404.460560462954" width="55.303999999999995" height="52.0" class=""/>
</g>
<g transform="rotate(10.0, 842.1404253829157, 1415.956560462954)">
<rect rx="6.0" ry="6.0" x="814.4884253829157" y="1389.956560462954" width="55.303999999999995" height="52.0" class=""/>
</g>
<rect rx="6.0" ry="6.0" x="252.52800000000002" y="1417.0094226119286" width="55.303999999999995" height="52.0" class=""/>
<g transform="rotate(15.0, 345.8110459231361, 1452.2006695451914)">
<rect rx="6.0" ry="6.0" x="318.1590459231361" y="1426.2006695451914" width="55.303999999999995" height="52.0" class=""/>
</g>
<g transform="rotate(30.0, 406.56824871130596, 1477.4634226119288)">
<rect rx="6.0" ry="6.0" x="378.91624871130597" y="1451.4634226119288" width="55.303999999999995" height="52.0" class=""/>
<text x="406.56824871130596" y="1477.4634226119288" class="tap">adjust_layer</text>
</g>
<g transform="rotate(-30.0, 495.38424871130593, 1477.4354226119287)">
<rect rx="6.0" ry="6.0" x="467.73224871130594" y="1451.4354226119287" width="55.303999999999995" height="52.0" class="held"/>
</g>
<g transform="rotate(-15.0, 556.1489540768639, 1452.2006695451914)">
<rect rx="6.0" ry="6.0" x="528.4969540768639" y="1426.2006695451914" width="55.303999999999995" height="52.0" class=""/>
</g>
<rect rx="6.0" ry="6.0" x="594.072" y="1417.0094226119286" width="55.303999999999995" height="52.0" class=""/>
<rect rx="6.0" ry="6.0" x="122.37182141183854" y="1281.4959681280739" width="28.0" height="26.0" class="combo"/>
<text x="136.37182141183854" y="1294.4959681280739" class="combo">ESC</text>
<path d="M634.8000000000001,1150.0254226119287 h-23.652000000000044 a6.0,6.0 0 0 0 -6.0,6.0 v144.1093333333334"/>
<path d="M634.8000000000001,1150.0254226119287 h23.652000000000044 a6.0,6.0 0 0 1 6.0,6.0 v116.33333333333333"/>
<rect rx="6.0" ry="6.0" x="620.8000000000001" y="1137.0254226119287" width="28.0" height="26.0" class="combo"/>
<text x="634.8000000000001" y="1150.0254226119287" class="combo">$$bspc$$</text>
<path d="M696.2879658967038,1150.0254226119287 h-25.83596589670367 a6.0,6.0 0 0 0 -6.0,6.0 v116.33333333333333"/>
<path d="M696.2879658967038,1150.0254226119287 h25.835965896703556 a6.0,6.0 0 0 1 6.0,6.0 v150.10328651459812"/>
<rect rx="6.0" ry="6.0" x="682.2879658967038" y="1137.0254226119287" width="28.0" height="26.0" class="combo"/>
<text x="696.2879658967038" y="1150.0254226119287" class="combo">DEL</text>
<path d="M666.6359658967037,1149.8014226119287 h-55.48796589670371 a6.0,6.0 0 0 0 -6.0,6.0 v144.33333333333334"/>
<path d="M666.6359658967037,1149.8014226119287 h55.4879658967036 a6.0,6.0 0 0 1 6.0,6.0 v150.32728651459806"/>
<rect rx="6.0" ry="6.0" x="652.6359658967037" y="1136.8014226119287" width="28.0" height="26.0" class="combo"/>
<text x="666.6359658967037" y="1149.8014226119287" class="combo">LA(BSPC)</text>
</g>
<g class="layer-adjust_layer">
<text x="30.0" y="1544.538133917893" class="label">adjust_layer:</text>
<g transform="rotate(-10.0, 103.10757461708434, 1825.5972717689183)">
<rect rx="6.0" ry="6.0" x="75.45557461708434" y="1799.5972717689183" width="55.303999999999995" height="52.0" class=""/>
<text x="103.10757461708434" y="1825.5972717689183" class="tap">RESET</text>
</g>
<g transform="rotate(-4.0, 169.6360682065927, 1774.4200870991579)">
<rect rx="6.0" ry="6.0" x="141.98406820659272" y="1748.4200870991579" width="55.303999999999995" height="52.0" class=""/>
<text x="169.6360682065927" y="1774.4200870991579" class="tap">
<tspan x="169.6360682065927" dy="-0.6em">BT</tspan><tspan x="169.6360682065927" dy="1.2em">CLR</tspan></text>
</g>
<rect rx="6.0" ry="6.0" x="209.8" y="1714.538133917893" width="55.303999999999995" height="52.0" class=""/>
<text x="237.452" y="1740.538133917893" class="tap">
<tspan x="237.452" dy="-0.6em">OUT</tspan><tspan x="237.452" dy="1.2em">TOG</tspan></text>
<rect rx="6.0" ry="6.0" x="269.104" y="1742.314133917893" width="55.303999999999995" height="52.0" class=""/>
<rect rx="6.0" ry="6.0" x="328.352" y="1751.274133917893" width="55.303999999999995" height="52.0" class=""/>
<rect rx="6.0" ry="6.0" x="518.192" y="1751.274133917893" width="55.303999999999995" height="52.0" class=""/>
<rect rx="6.0" ry="6.0" x="577.496" y="1742.314133917893" width="55.303999999999995" height="52.0" class=""/>
<text x="605.148" y="1768.314133917893" class="tap">F7</text>
<rect rx="6.0" ry="6.0" x="636.8000000000001" y="1714.538133917893" width="55.303999999999995" height="52.0" class=""/>
<text x="664.4520000000001" y="1740.538133917893" class="tap">F8</text>
<g transform="rotate(4.0, 732.0440682065927, 1774.4721807366282)">
<rect rx="6.0" ry="6.0" x="704.3920682065926" y="1748.4721807366282" width="55.303999999999995" height="52.0" class=""/>
<text x="732.0440682065927" y="1774.4721807366282" class="tap">F9</text>
</g>
<g transform="rotate(10.0, 798.7964253829157, 1825.6532717689183)">
<rect rx="6.0" ry="6.0" x="771.1444253829156" y="1799.6532717689183" width="55.303999999999995" height="52.0" class=""/>
<text x="798.7964253829157" y="1825.6532717689183" class="tap">F12</text>
</g>
<g transform="rotate(-10.0, 112.85157461708434, 1880.7572717689184)">
<rect rx="6.0" ry="6.0" x="85.19957461708434" y="1854.7572717689184" width="55.303999999999995" height="52.0" class=""/>
<text x="112.85157461708434" y="1880.7572717689184" class="tap">BOOT</text>
</g>
<g transform="rotate(-4.0, 173.49993179340728, 1830.2481807366282)">
<rect rx="6.0" ry="6.0" x="145.8479317934073" y="1804.2481807366282" width="55.303999999999995" height="52.0" class=""/>
<text x="173.49993179340728" y="1830.2481807366282" class="tap">
<tspan x="173.49993179340728" dy="-0.6em">BT</tspan><tspan x="173.49993179340728" dy="1.2em">NXT</tspan></text>
</g>
<rect rx="6.0" ry="6.0" x="209.8" y="1770.538133917893" width="55.303999999999995" height="52.0" class=""/>
<rect rx="6.0" ry="6.0" x="269.104" y="1798.314133917893" width="55.303999999999995" height="52.0" class=""/>
<rect rx="6.0" ry="6.0" x="328.352" y="1807.2741339178929" width="55.303999999999995" height="52.0" class=""/>
<rect rx="6.0" ry="6.0" x="518.192" y="1807.554133917893" width="55.303999999999995" height="52.0" class=""/>
<rect rx="6.0" ry="6.0" x="577.496" y="1798.314133917893" width="55.303999999999995" height="52.0" class=""/>
<text x="605.148" y="1824.314133917893" class="tap">F4</text>
<rect rx="6.0" ry="6.0" x="636.8000000000001" y="1770.538133917893" width="55.303999999999995" height="52.0" class=""/>
<text x="664.4520000000001" y="1796.538133917893" class="tap">F5</text>
<g transform="rotate(4.0, 728.1239317934073, 1830.3080870991578)">
<rect rx="6.0" ry="6.0" x="700.4719317934073" y="1804.3080870991578" width="55.303999999999995" height="52.0" class=""/>
<text x="728.1239317934073" y="1830.3080870991578" class="tap">F6</text>
</g>
<g transform="rotate(10.0, 789.1084253829157, 1880.8132717689184)">
<rect rx="6.0" ry="6.0" x="761.4564253829157" y="1854.8132717689184" width="55.303999999999995" height="52.0" class=""/>
<text x="789.1084253829157" y="1880.8132717689184" class="tap">F11</text>
</g>
<g transform="rotate(-10.0, 59.651574617084336, 1921.4692717689184)">
<rect rx="6.0" ry="6.0" x="31.99957461708434" y="1895.4692717689184" width="55.303999999999995" height="52.0" class=""/>
</g>
<g transform="rotate(-10.0, 122.59642538291565, 1935.9269960668676)">
<rect rx="6.0" ry="6.0" x="94.94442538291565" y="1909.9269960668676" width="55.303999999999995" height="52.0" class=""/>
</g>
<g transform="rotate(-4.0, 177.42006820659273, 1886.1400870991579)">
<rect rx="6.0" ry="6.0" x="149.76806820659274" y="1860.1400870991579" width="55.303999999999995" height="52.0" class=""/>
<text x="177.42006820659273" y="1886.1400870991579" class="tap">
<tspan x="177.42006820659273" dy="-0.6em">BT</tspan><tspan x="177.42006820659273" dy="1.2em">PRV</tspan></text>
</g>
<rect rx="6.0" ry="6.0" x="209.8" y="1826.538133917893" width="55.303999999999995" height="52.0" class=""/>
<rect rx="6.0" ry="6.0" x="269.104" y="1854.314133917893" width="55.303999999999995" height="52.0" class=""/>
<rect rx="6.0" ry="6.0" x="328.352" y="1863.274133917893" width="55.303999999999995" height="52.0" class=""/>
<rect rx="6.0" ry="6.0" x="518.192" y="1863.554133917893" width="55.303999999999995" height="52.0" class=""/>
<rect rx="6.0" ry="6.0" x="577.496" y="1854.314133917893" width="55.303999999999995" height="52.0" class=""/>
<text x="605.148" y="1880.314133917893" class="tap">F1</text>
<rect rx="6.0" ry="6.0" x="636.8000000000001" y="1826.538133917893" width="55.303999999999995" height="52.0" class=""/>
<text x="664.4520000000001" y="1852.538133917893" class="tap">F2</text>
<g transform="rotate(4.0, 724.2600682065927, 1886.1921807366282)">
<rect rx="6.0" ry="6.0" x="696.6080682065926" y="1860.1921807366282" width="55.303999999999995" height="52.0" class=""/>
<text x="724.2600682065927" y="1886.1921807366282" class="tap">F3</text>
</g>
<g transform="rotate(10.0, 779.3644253829157, 1935.9732717689183)">
<rect rx="6.0" ry="6.0" x="751.7124253829156" y="1909.9732717689183" width="55.303999999999995" height="52.0" class=""/>
<text x="779.3644253829157" y="1935.9732717689183" class="tap">F10</text>
</g>
<g transform="rotate(10.0, 842.1404253829157, 1921.4692717689184)">
<rect rx="6.0" ry="6.0" x="814.4884253829157" y="1895.4692717689184" width="55.303999999999995" height="52.0" class=""/>
</g>
<rect rx="6.0" ry="6.0" x="252.52800000000002" y="1922.522133917893" width="55.303999999999995" height="52.0" class=""/>
<g transform="rotate(15.0, 345.8110459231361, 1957.7133808511558)">
<rect rx="6.0" ry="6.0" x="318.1590459231361" y="1931.7133808511558" width="55.303999999999995" height="52.0" class=""/>
</g>
<g transform="rotate(30.0, 406.56824871130596, 1982.976133917893)">
<rect rx="6.0" ry="6.0" x="378.91624871130597" y="1956.976133917893" width="55.303999999999995" height="52.0" class="held"/>
</g>
<g transform="rotate(-30.0, 495.38424871130593, 1982.948133917893)">
<rect rx="6.0" ry="6.0" x="467.73224871130594" y="1956.948133917893" width="55.303999999999995" height="52.0" class="held"/>
</g>
<g transform="rotate(-15.0, 556.1489540768639, 1957.7133808511558)">
<rect rx="6.0" ry="6.0" x="528.4969540768639" y="1931.7133808511558" width="55.303999999999995" height="52.0" class=""/>
</g>
<rect rx="6.0" ry="6.0" x="594.072" y="1922.522133917893" width="55.303999999999995" height="52.0" class=""/>
<rect rx="6.0" ry="6.0" x="122.37182141183854" y="1787.0086794340382" width="28.0" height="26.0" class="combo"/>
<text x="136.37182141183854" y="1800.0086794340382" class="combo">ESC</text>
<path d="M634.8000000000001,1655.538133917893 h-23.652000000000044 a6.0,6.0 0 0 0 -6.0,6.0 v144.1093333333334"/>
<path d="M634.8000000000001,1655.538133917893 h23.652000000000044 a6.0,6.0 0 0 1 6.0,6.0 v116.33333333333333"/>
<rect rx="6.0" ry="6.0" x="620.8000000000001" y="1642.538133917893" width="28.0" height="26.0" class="combo"/>
<text x="634.8000000000001" y="1655.538133917893" class="combo">$$bspc$$</text>
<path d="M696.2879658967038,1655.538133917893 h-25.83596589670367 a6.0,6.0 0 0 0 -6.0,6.0 v116.33333333333333"/>
<path d="M696.2879658967038,1655.538133917893 h25.835965896703556 a6.0,6.0 0 0 1 6.0,6.0 v150.10328651459812"/>
<rect rx="6.0" ry="6.0" x="682.2879658967038" y="1642.538133917893" width="28.0" height="26.0" class="combo"/>
<text x="696.2879658967038" y="1655.538133917893" class="combo">DEL</text>
<path d="M666.6359658967037,1655.314133917893 h-55.48796589670371 a6.0,6.0 0 0 0 -6.0,6.0 v144.33333333333334"/>
<path d="M666.6359658967037,1655.314133917893 h55.4879658967036 a6.0,6.0 0 0 1 6.0,6.0 v150.32728651459806"/>
<rect rx="6.0" ry="6.0" x="652.6359658967037" y="1642.314133917893" width="28.0" height="26.0" class="combo"/>
<text x="666.6359658967037" y="1655.314133917893" class="combo">LA(BSPC)</text>
</g>
</svg>
